<?xml version="1.0" encoding="utf-8"?>
<!-- Generator: Adobe Adobe Illustrator 24.2.0, SVG Export Plug-In . SVG Version: 6.00 Build 0)  -->
<svg version="1.1" xmlns="http://www.w3.org/2000/svg" xmlns:xlink="http://www.w3.org/1999/xlink" x="0px" y="0px" width="1024px"
	 height="1024px" viewBox="0 0 1024 1024" style="enable-background:new 0 0 1024 1024;" xml:space="preserve">
<style type="text/css">
	.st0{fill:#27201F;stroke:#E60846;stroke-width:37;stroke-linecap:round;stroke-linejoin:round;stroke-miterlimit:10;}
	.st1{opacity:0.851;}
	.st2{fill:#FFFFFF;}
	.st3{fill:#E60846;}
	.st4{fill:none;stroke:#FF858B;stroke-width:15;stroke-miterlimit:10;stroke-dasharray:20,20,20,20,20,20;}
</style>
<g id="Ebene_1_Kopieren">
	<path class="st0" d="M22,902V122C22,66.77,66.77,22,122,22h780c55.23,0,100,44.77,100,100v780c0,55.23-44.77,100-100,100H122
		C66.77,1002,22,957.23,22,902z"/>
</g>
<g id="Ebene_2">
	<g class="st1">
		<path class="st2" d="M215.65,732.2c-4.66-4.23-6.98-9.25-6.98-15.08V204.45c0-5.82,2.32-10.84,6.98-15.08
			c4.65-4.23,10.17-6.35,16.57-6.35h137.81c16.27,0,28.78,7.14,37.5,21.43l126.47,190.47l126.47-190.47
			c8.72-14.29,21.22-21.43,37.5-21.43h137.81c6.39,0,11.91,2.12,16.57,6.35c4.65,4.24,6.98,9.26,6.98,15.08v512.68
			c0,5.83-2.33,10.85-6.98,15.08c-4.66,4.24-10.18,6.35-16.57,6.35H677.92c-6.41,0-11.92-2.11-16.57-6.35
			c-4.66-4.23-6.98-9.25-6.98-15.08V499.67l-57.57,85.71c-4.08,5.83-8.59,10.59-13.52,14.29c-4.95,3.71-11.2,5.55-18.75,5.55h-61.05
			c-7.56,0-13.82-1.85-18.75-5.55c-4.95-3.7-9.46-8.46-13.52-14.29l-57.57-85.71v217.45c0,5.83-2.33,10.85-6.98,15.08
			c-4.66,4.24-10.18,6.35-16.57,6.35H232.22C225.82,738.55,220.3,736.44,215.65,732.2z"/>
	</g>
	<g>
		<path class="st3" d="M115.7,791.03c-4.69-4.25-7.02-9.31-7.02-15.17V260.04c0-5.85,2.33-10.9,7.02-15.17
			c4.68-4.25,10.23-6.39,16.67-6.39h138.65c16.37,0,28.96,7.19,37.73,21.56l127.25,191.64l127.24-191.64
			c8.78-14.37,21.35-21.56,37.73-21.56h138.65c6.43,0,11.98,2.13,16.67,6.39c4.68,4.27,7.02,9.32,7.02,15.17v515.82
			c0,5.86-2.34,10.92-7.02,15.17c-4.69,4.27-10.24,6.39-16.67,6.39H580.8c-6.45,0-12-2.12-16.67-6.39
			c-4.69-4.25-7.02-9.31-7.02-15.17V557.08l-57.92,86.24c-4.1,5.86-8.64,10.65-13.6,14.37c-4.98,3.73-11.27,5.59-18.87,5.59h-61.43
			c-7.61,0-13.9-1.86-18.87-5.59c-4.98-3.72-9.52-8.51-13.6-14.37l-57.92-86.24v218.79c0,5.86-2.34,10.92-7.02,15.17
			c-4.69,4.27-10.24,6.39-16.67,6.39H132.37C125.93,797.42,120.38,795.3,115.7,791.03z"/>
	</g>
	<g>
		<path class="st4" d="M283.5,839.31c-4.49-4.07-6.72-8.91-6.72-14.52V331.2c0-5.6,2.23-10.43,6.72-14.52
			c4.47-4.07,9.79-6.11,15.96-6.11h132.68c15.67,0,27.71,6.88,36.11,20.63l121.76,183.38L711.77,331.2
			c8.4-13.75,20.43-20.63,36.11-20.63h132.68c6.15,0,11.47,2.04,15.95,6.11c4.47,4.08,6.72,8.92,6.72,14.52v493.59
			c0,5.61-2.24,10.45-6.72,14.52c-4.49,4.08-9.8,6.11-15.95,6.11H728.56c-6.17,0-11.48-2.03-15.96-6.11
			c-4.49-4.07-6.72-8.91-6.72-14.52V615.43l-55.42,82.52c-3.92,5.61-8.27,10.2-13.02,13.75c-4.76,3.57-10.79,5.35-18.05,5.35h-58.78
			c-7.28,0-13.3-1.78-18.05-5.35c-4.76-3.56-9.11-8.14-13.02-13.75l-55.42-82.52v209.36c0,5.61-2.24,10.45-6.72,14.52
			c-4.49,4.08-9.8,6.11-15.96,6.11H299.46C293.29,845.42,287.98,843.39,283.5,839.31z"/>
	</g>
</g>
</svg>
